<svg width="33" height="32" viewBox="0 0 33 32" fill="none" xmlns="http://www.w3.org/2000/svg">
<defs>
<linearGradient id="paint0_linear_1044_28" x1="10.6459" y1="0" x2="10.6459" y2="10.406" gradientUnits="userSpaceOnUse">
<stop stop-color="#F02051"/>
<stop offset="1" stop-color="#FE7737"/>
</linearGradient>
<linearGradient id="paint1_linear_1044_28" x1="21.7294" y1="0" x2="21.7294" y2="10.406" gradientUnits="userSpaceOnUse">
<stop stop-color="#F02051"/>
<stop offset="1" stop-color="#FE7737"/>
</linearGradient>
<linearGradient id="paint2_linear_1044_28" x1="16.1875" y1="7.98401" x2="16.1875" y2="31.109" gradientUnits="userSpaceOnUse">
<stop stop-color="#F02051"/>
<stop offset="1" stop-color="#FE7737"/>
</linearGradient>
</defs>
<path d="M14.2139 10.406L5.7814 1.97354C5.33003 1.52217 5.33003 0.790194 5.7814 0.338533C6.23278 -0.112844 6.96475 -0.112844 7.41641 0.338533L15.8489 8.77103L14.2139 10.406Z" fill="url(#paint0_linear_1044_28)"/>
<path d="M18.1614 10.406L16.5264 8.77103L24.9589 0.338533C25.4105 -0.112844 26.1425 -0.112844 26.5939 0.338533C27.0452 0.790194 27.0452 1.52217 26.5939 1.97354L18.1614 10.406Z" fill="url(#paint1_linear_1044_28)"/>
<path fill-rule="evenodd" clip-rule="evenodd" d="M30.0625 7.98401H2.3125C1.03543 7.98401 0 9.01944 0 10.2965V28.7965C0 30.0736 1.03543 31.109 2.3125 31.109H30.0625C31.3396 31.109 32.375 30.0736 32.375 28.7965V10.2965C32.375 9.01944 31.3396 7.98401 30.0625 7.98401ZM9.25 25.5806C9.25 26.324 10.0323 26.8074 10.6972 26.475L22.7653 20.4411C23.5024 20.0725 23.5024 19.0207 22.7653 18.6522L10.6972 12.6182C10.0323 12.2858 9.25 12.7693 9.25 13.5127V25.5806ZM2.3125 15.9216C2.3125 15.3693 2.76022 14.9216 3.3125 14.9216H3.625C4.17728 14.9216 4.625 15.3693 4.625 15.9216V16.2341C4.625 16.7864 4.17728 17.2341 3.625 17.2341H3.3125C2.76022 17.2341 2.3125 16.7864 2.3125 16.2341V15.9216ZM3.3125 21.8591C2.76022 21.8591 2.3125 22.3068 2.3125 22.8591V23.1716C2.3125 23.7239 2.76022 24.1716 3.3125 24.1716H3.625C4.17728 24.1716 4.625 23.7239 4.625 23.1716V22.8591C4.625 22.3068 4.17728 21.8591 3.625 21.8591H3.3125ZM27.75 15.9216C27.75 15.3693 28.1977 14.9216 28.75 14.9216H29.0625C29.6148 14.9216 30.0625 15.3693 30.0625 15.9216V16.2341C30.0625 16.7864 29.6148 17.2341 29.0625 17.2341H28.75C28.1977 17.2341 27.75 16.7864 27.75 16.2341V15.9216ZM28.75 21.8591C28.1977 21.8591 27.75 22.3068 27.75 22.8591V23.1716C27.75 23.7239 28.1977 24.1716 28.75 24.1716H29.0625C29.6148 24.1716 30.0625 23.7239 30.0625 23.1716V22.8591C30.0625 22.3068 29.6148 21.8591 29.0625 21.8591H28.75Z" fill="url(#paint2_linear_1044_28)"/>
</svg>
