<svg width="21" height="24" viewBox="0 0 21 24" fill="none" xmlns="http://www.w3.org/2000/svg">
<path d="M19.6875 24H1.3125C0.587626 24 0 23.4219 0 22.7087V10.3306C0 9.98813 0.138404 9.65974 0.384562 9.41764L9.57206 0.378714C9.81824 0.136242 10.1523 0 10.5007 0C10.849 0 11.1831 0.136242 11.4292 0.378714L20.6167 9.41764C20.8632 9.65947 21.0011 9.98814 21 10.3306V22.7087C21 23.4219 20.4124 24 19.6875 24ZM7.875 14.9611H13.125V21.4175H18.375V10.8652L10.5 3.11751L2.625 10.8652V21.4175H7.875V14.9611Z" fill="#2E3A59"/>
</svg>
