<svg width="31" height="30" viewBox="0 0 31 30" fill="none" xmlns="http://www.w3.org/2000/svg">
<path fill-rule="evenodd" clip-rule="evenodd" d="M28.5 0H20.0427C19.0784 0 18.2966 0.781764 18.2966 1.74612C18.2966 2.71047 17.487 3.45464 16.5884 3.80468C15.6265 4.17939 14.7373 4.95858 14.7373 6.48559C14.7373 8.06362 15.6869 8.57681 16.6851 8.783C17.5972 8.97143 18.2966 9.67295 18.2966 10.6044C18.2966 11.636 19.1329 12.4723 20.1645 12.4723H21.0691C22.2883 12.4723 23.1507 11.3651 23.3908 10.1698C23.5255 9.49919 23.8221 8.98004 24.3983 8.98004C24.9746 8.98004 25.2712 9.49919 25.4059 10.1698C25.646 11.3651 26.5083 12.4723 27.7276 12.4723H28.5C29.6046 12.4723 30.5 11.5769 30.5 10.4723V2C30.5 0.895429 29.6046 0 28.5 0ZM23.5356 7.15951C23.8109 7.25093 24.1282 7.29664 24.4876 7.29664C24.9636 7.29664 25.3649 7.21484 25.6916 7.05125C26.0182 6.88285 26.2632 6.63265 26.4266 6.30065C26.5946 5.96384 26.6786 5.54765 26.6786 5.05206V2.73531C26.6786 2.51398 26.6249 2.34798 26.5176 2.23731C26.4102 2.12184 26.2539 2.0641 26.0486 2.0641C25.8432 2.0641 25.6846 2.12184 25.5726 2.23731C25.4652 2.34798 25.4116 2.51398 25.4116 2.73531V5.06649C25.4116 5.43698 25.3322 5.71605 25.1736 5.9037C25.0149 6.09135 24.7862 6.18517 24.4876 6.18517C24.1842 6.18517 23.9532 6.09135 23.7946 5.9037C23.6359 5.71605 23.5566 5.43698 23.5566 5.06649V2.73531C23.5566 2.51398 23.5006 2.34798 23.3886 2.23731C23.2812 2.12184 23.1226 2.0641 22.9126 2.0641C22.7072 2.0641 22.5486 2.12184 22.4366 2.23731C22.3246 2.34798 22.2686 2.51398 22.2686 2.73531V5.05206C22.2686 5.42255 22.3152 5.74973 22.4086 6.03361C22.5066 6.31268 22.6489 6.54604 22.8356 6.73369C23.0269 6.92134 23.2602 7.06328 23.5356 7.15951Z" fill="#30A1E2"/>
<path fill-rule="evenodd" clip-rule="evenodd" d="M23.4143 29.9335H15.2109C14.5109 29.9335 13.8948 29.5738 13.5375 29.0292C13.6499 28.7478 13.7119 28.4395 13.7119 28.1164C13.7119 27.4626 14.2034 26.8388 14.9188 26.4358C15.8262 25.9246 16.7627 24.9985 16.7627 23.5145C16.7627 22.1197 15.9331 21.318 15.0629 20.9118C14.2697 20.5415 13.7119 19.9282 13.7119 19.2739C13.7119 18.9184 13.6323 18.5821 13.4906 18.2828C13.8068 17.7887 14.3605 17.4612 14.9906 17.4612C15.9735 17.4612 16.7394 16.639 17.0834 15.7183C17.4264 14.8006 18.0971 13.969 19.3126 13.969C20.5282 13.969 21.1989 14.8006 21.5418 15.7183C21.8859 16.639 22.6518 17.4612 23.6347 17.4612C24.6175 17.4612 25.4143 18.258 25.4143 19.2409V27.9335C25.4143 29.0381 24.5189 29.9335 23.4143 29.9335ZM13.2135 28.0366C13.2118 28.0024 13.2109 27.9681 13.2109 27.9335V19.2409C13.2109 19.2338 13.211 19.2267 13.2111 19.2196C13.2116 19.2377 13.2119 19.2558 13.2119 19.2739C13.2119 20.2383 14.0047 20.9837 14.8567 21.3814C15.6085 21.7324 16.2627 22.3828 16.2627 23.5145C16.2627 24.7346 15.5024 25.5196 14.679 25.9834C13.9133 26.4148 13.2511 27.1462 13.2135 28.0366ZM19.0465 26.1751C18.8832 26.1751 18.7478 26.139 18.6405 26.0668C18.5378 25.9946 18.4678 25.8984 18.4305 25.7781C18.3932 25.653 18.3932 25.5183 18.4305 25.3739C18.4678 25.2248 18.5448 25.0756 18.6615 24.9265L20.7865 22.1767H18.9485C18.7665 22.1767 18.6288 22.131 18.5355 22.0395C18.4422 21.9433 18.3955 21.8062 18.3955 21.6282C18.3955 21.4501 18.4422 21.3154 18.5355 21.224C18.6288 21.1326 18.7665 21.0869 18.9485 21.0869H21.6785C21.8418 21.0869 21.9748 21.1229 22.0775 21.1951C22.1848 21.2673 22.2572 21.3635 22.2945 21.4838C22.3318 21.6041 22.3318 21.7388 22.2945 21.888C22.2572 22.0371 22.1802 22.1863 22.0635 22.3355L19.9385 25.0852H21.8885C22.0658 25.0852 22.2012 25.131 22.2945 25.2224C22.3925 25.3138 22.4415 25.4485 22.4415 25.6265C22.4415 25.8046 22.3925 25.9417 22.2945 26.0379C22.2012 26.1293 22.0658 26.1751 21.8885 26.1751H19.0465Z" fill="#30A1E2"/>
<path fill-rule="evenodd" clip-rule="evenodd" d="M0.5 6.18635V14.2628C0.5 15.2761 1.29678 16.0977 2.27966 16.0977C3.26254 16.0977 4.01584 16.958 4.42288 17.8804C4.82083 18.7822 5.61269 19.5899 7.11017 19.5899C8.66381 19.5899 9.20473 18.7205 9.42916 17.7786C9.65499 16.8308 10.3528 16.0977 11.2994 16.0977C12.3556 16.0977 13.2119 15.2148 13.2119 14.1258V13.4701C13.2119 12.2209 12.1232 11.3224 10.929 11.1113C10.2149 10.9851 9.65254 10.6939 9.65254 10.111C9.65254 9.52807 10.2149 9.23682 10.929 9.1106C12.1232 8.8995 13.2119 8.00105 13.2119 6.7518V6.18635C13.2119 5.04749 12.3164 4.12427 11.2119 4.12427H2.5C1.39543 4.12427 0.5 5.04749 0.5 6.18635ZM7.711 13.4171C7.73433 13.3016 7.704 13.1717 7.62 13.0273L7.361 12.6015C7.25833 12.4235 7.13467 12.296 6.99 12.219C6.98234 12.2146 6.97511 12.2105 6.96825 12.2066C6.89948 12.1676 6.86858 12.15 6.81955 12.1421C7.00586 12.035 7.17234 11.9043 7.319 11.7499C7.543 11.5141 7.71333 11.235 7.83 10.9126C7.95133 10.5903 8.012 10.2318 8.012 9.83727C8.012 9.308 7.907 8.8485 7.697 8.45877C7.487 8.06422 7.193 7.75869 6.815 7.54217C6.44167 7.32565 6.00533 7.21739 5.506 7.21739C5.13267 7.21739 4.792 7.27994 4.484 7.40504C4.176 7.52533 3.91 7.70095 3.686 7.93191C3.46667 8.16286 3.29633 8.43952 3.175 8.7619C3.05833 9.08427 3 9.44273 3 9.83727C3 10.3617 3.10267 10.8212 3.308 11.2158C3.518 11.6103 3.812 11.9183 4.19 12.1396C4.56624 12.3551 5.00258 12.4634 5.49902 12.4644C5.63436 12.4644 5.744 12.4836 5.828 12.5221C5.912 12.5606 5.97967 12.6231 6.031 12.7098L6.549 13.5686C6.62833 13.7033 6.72867 13.7948 6.85 13.8429C6.97133 13.891 7.09267 13.903 7.214 13.879C7.34 13.8549 7.44733 13.802 7.536 13.7202C7.62933 13.6384 7.68767 13.5373 7.711 13.4171ZM6.136 11.1725C5.96333 11.2928 5.75333 11.3529 5.506 11.3529C5.13733 11.3529 4.85033 11.2206 4.645 10.956C4.43967 10.6865 4.337 10.3136 4.337 9.83727C4.337 9.5149 4.38367 9.24305 4.477 9.02172C4.57033 8.79558 4.70333 8.62477 4.876 8.50929C5.05333 8.389 5.26333 8.32886 5.506 8.32886C5.87467 8.32886 6.16167 8.46117 6.367 8.72581C6.57233 8.99044 6.675 9.36093 6.675 9.83727C6.675 10.1548 6.62833 10.4267 6.535 10.6528C6.44167 10.879 6.30867 11.0522 6.136 11.1725Z" fill="#30A1E2"/>
<path fill-rule="evenodd" clip-rule="evenodd" d="M3.65916 17.5278H2.5C1.39543 17.5278 0.5 18.4511 0.5 19.5899V27.938C0.5 29.0769 1.39543 30.0001 2.5 30.0001H11.3848C12.3939 30.0001 13.2119 29.1567 13.2119 28.1164C13.2119 27.1899 13.8905 26.4276 14.679 25.9834C15.5024 25.5196 16.2627 24.7346 16.2627 23.5145C16.2627 22.3828 15.6085 21.7324 14.8567 21.3815C14.0047 20.9837 13.2119 20.2383 13.2119 19.274C13.2119 18.3096 12.4536 17.5278 11.5183 17.5278H10.0393C9.98831 17.6437 9.9464 17.7686 9.91472 17.9016C9.79026 18.4239 9.56446 18.9877 9.10447 19.4189C8.63528 19.8587 7.98197 20.1054 7.11017 20.1054C6.26947 20.1054 5.59447 19.877 5.06699 19.4953C4.5434 19.1165 4.19483 18.6084 3.96778 18.0939C3.87767 17.8897 3.77397 17.6994 3.65916 17.5278ZM4.2481 17.5278C4.31197 17.6432 4.37031 17.7613 4.42288 17.8804C4.82083 18.7822 5.61269 19.5899 7.11017 19.5899C8.66381 19.5899 9.20473 18.7205 9.42916 17.7786C9.44952 17.6931 9.47372 17.6094 9.50159 17.5278H4.2481ZM7.1108 28.3021C6.90546 28.3021 6.7468 28.2444 6.6348 28.1289C6.5228 28.0086 6.4668 27.8402 6.4668 27.6237V23.7625C6.4668 23.5411 6.5228 23.3727 6.6348 23.2572C6.7468 23.1418 6.90546 23.084 7.1108 23.084C7.3208 23.084 7.47946 23.1418 7.5868 23.2572C7.6988 23.3727 7.7548 23.5411 7.7548 23.7625V27.6237C7.7548 27.8402 7.70113 28.0086 7.5938 28.1289C7.48646 28.2444 7.32546 28.3021 7.1108 28.3021Z" fill="#30A1E2"/>
</svg>
