<svg width="31" height="31" viewBox="0 0 31 31" fill="none" xmlns="http://www.w3.org/2000/svg">
<path fill-rule="evenodd" clip-rule="evenodd" d="M28.5 0.285645H20.0427C19.0784 0.285645 18.2966 1.06741 18.2966 2.03176C18.2966 2.99612 17.487 3.74029 16.5884 4.09033C15.6265 4.46504 14.7373 5.24422 14.7373 6.77123C14.7373 8.34926 15.6869 8.86245 16.6851 9.06865C17.5972 9.25708 18.2966 9.9586 18.2966 10.89C18.2966 11.9216 19.1329 12.7579 20.1645 12.7579H21.0691C22.2883 12.7579 23.1507 11.6508 23.3908 10.4554C23.5255 9.78483 23.8221 9.26569 24.3983 9.26569C24.9746 9.26569 25.2712 9.78483 25.4059 10.4554C25.646 11.6508 26.5083 12.7579 27.7276 12.7579H28.5C29.6046 12.7579 30.5 11.8625 30.5 10.7579V2.28564C30.5 1.18107 29.6046 0.285645 28.5 0.285645ZM23.5356 7.44515C23.8109 7.53657 24.1282 7.58228 24.4876 7.58228C24.9636 7.58228 25.3649 7.50049 25.6916 7.33689C26.0182 7.16849 26.2632 6.91829 26.4266 6.58629C26.5946 6.24949 26.6786 5.83329 26.6786 5.3377V3.02095C26.6786 2.79962 26.6249 2.63362 26.5176 2.52296C26.4102 2.40748 26.2539 2.34974 26.0486 2.34974C25.8432 2.34974 25.6846 2.40748 25.5726 2.52296C25.4652 2.63362 25.4116 2.79962 25.4116 3.02095V5.35214C25.4116 5.72262 25.3322 6.00169 25.1736 6.18934C25.0149 6.37699 24.7862 6.47082 24.4876 6.47082C24.1842 6.47082 23.9532 6.37699 23.7946 6.18934C23.6359 6.00169 23.5566 5.72262 23.5566 5.35214V3.02095C23.5566 2.79962 23.5006 2.63362 23.3886 2.52296C23.2812 2.40748 23.1226 2.34974 22.9126 2.34974C22.7072 2.34974 22.5486 2.40748 22.4366 2.52296C22.3246 2.63362 22.2686 2.79962 22.2686 3.02095V5.3377C22.2686 5.70819 22.3152 6.03537 22.4086 6.31925C22.5066 6.59832 22.6489 6.83168 22.8356 7.01933C23.0269 7.20698 23.2602 7.34892 23.5356 7.44515Z" fill="#3C4B65"/>
<path fill-rule="evenodd" clip-rule="evenodd" d="M23.4143 30.2192H15.2109C14.5109 30.2192 13.8948 29.8595 13.5375 29.3149C13.6499 29.0335 13.7119 28.7252 13.7119 28.402C13.7119 27.7482 14.2034 27.1244 14.9188 26.7214C15.8262 26.2103 16.7627 25.2841 16.7627 23.8001C16.7627 22.4054 15.9331 21.6037 15.0629 21.1974C14.2697 20.8271 13.7119 20.2139 13.7119 19.5596C13.7119 19.2041 13.6323 18.8677 13.4906 18.5685C13.8068 18.0744 14.3605 17.7469 14.9906 17.7469C15.9735 17.7469 16.7394 16.9246 17.0834 16.0039C17.4264 15.0862 18.0971 14.2546 19.3126 14.2546C20.5282 14.2546 21.1989 15.0862 21.5418 16.0039C21.8859 16.9246 22.6518 17.7469 23.6347 17.7469C24.6175 17.7469 25.4143 18.5437 25.4143 19.5265V28.2192C25.4143 29.3237 24.5189 30.2192 23.4143 30.2192ZM13.2135 28.3222C13.2118 28.2881 13.2109 28.2537 13.2109 28.2192V19.5265C13.2109 19.5194 13.211 19.5124 13.2111 19.5053C13.2116 19.5233 13.2119 19.5414 13.2119 19.5596C13.2119 20.5239 14.0047 21.2693 14.8567 21.6671C15.6085 22.018 16.2627 22.6684 16.2627 23.8001C16.2627 25.0203 15.5024 25.8052 14.679 26.269C13.9133 26.7004 13.2511 27.4318 13.2135 28.3222ZM19.0465 26.4607C18.8832 26.4607 18.7478 26.4246 18.6405 26.3524C18.5378 26.2803 18.4678 26.184 18.4305 26.0637C18.3932 25.9386 18.3932 25.8039 18.4305 25.6596C18.4678 25.5104 18.5448 25.3613 18.6615 25.2121L20.7865 22.4623H18.9485C18.7665 22.4623 18.6288 22.4166 18.5355 22.3252C18.4422 22.229 18.3955 22.0918 18.3955 21.9138C18.3955 21.7358 18.4422 21.6011 18.5355 21.5096C18.6288 21.4182 18.7665 21.3725 18.9485 21.3725H21.6785C21.8418 21.3725 21.9748 21.4086 22.0775 21.4808C22.1848 21.5529 22.2572 21.6492 22.2945 21.7695C22.3318 21.8897 22.3318 22.0245 22.2945 22.1736C22.2572 22.3228 22.1802 22.4719 22.0635 22.6211L19.9385 25.3709H21.8885C22.0658 25.3709 22.2012 25.4166 22.2945 25.508C22.3925 25.5994 22.4415 25.7342 22.4415 25.9122C22.4415 26.0902 22.3925 26.2273 22.2945 26.3236C22.2012 26.415 22.0658 26.4607 21.8885 26.4607H19.0465Z" fill="#3C4B65"/>
<path fill-rule="evenodd" clip-rule="evenodd" d="M0.5 6.472V14.5484C0.5 15.5618 1.29678 16.3833 2.27966 16.3833C3.26254 16.3833 4.01584 17.2436 4.42288 18.166C4.82083 19.0678 5.61269 19.8755 7.11017 19.8755C8.66381 19.8755 9.20473 19.0061 9.42916 18.0642C9.65499 17.1164 10.3528 16.3833 11.2994 16.3833C12.3556 16.3833 13.2119 15.5005 13.2119 14.4114V13.7558C13.2119 12.5065 12.1232 11.6081 10.929 11.397C10.2149 11.2707 9.65254 10.9795 9.65254 10.3966C9.65254 9.81371 10.2149 9.52247 10.929 9.39624C12.1232 9.18514 13.2119 8.2867 13.2119 7.03744V6.472C13.2119 5.33314 12.3164 4.40991 11.2119 4.40991H2.5C1.39543 4.40991 0.5 5.33314 0.5 6.472ZM7.711 13.7027C7.73433 13.5872 7.704 13.4573 7.62 13.313L7.361 12.8871C7.25833 12.7091 7.13467 12.5816 6.99 12.5046C6.98234 12.5003 6.97511 12.4962 6.96825 12.4923C6.89948 12.4532 6.86858 12.4357 6.81955 12.4278C7.00586 12.3207 7.17234 12.1899 7.319 12.0355C7.543 11.7997 7.71333 11.5207 7.83 11.1983C7.95133 10.8759 8.012 10.5175 8.012 10.1229C8.012 9.59365 7.907 9.13415 7.697 8.74441C7.487 8.34987 7.193 8.04434 6.815 7.82782C6.44167 7.6113 6.00533 7.50304 5.506 7.50304C5.13267 7.50304 4.792 7.56559 4.484 7.69069C4.176 7.81098 3.91 7.9866 3.686 8.21755C3.46667 8.4485 3.29633 8.72517 3.175 9.04754C3.05833 9.36991 3 9.72837 3 10.1229C3 10.6474 3.10267 11.1069 3.308 11.5014C3.518 11.896 3.812 12.2039 4.19 12.4252C4.56624 12.6407 5.00258 12.749 5.49902 12.75C5.63436 12.75 5.744 12.7693 5.828 12.8078C5.912 12.8462 5.97967 12.9088 6.031 12.9954L6.549 13.8543C6.62833 13.989 6.72867 14.0804 6.85 14.1285C6.97133 14.1766 7.09267 14.1887 7.214 14.1646C7.34 14.1405 7.44733 14.0876 7.536 14.0058C7.62933 13.924 7.68767 13.823 7.711 13.7027ZM6.136 11.4581C5.96333 11.5784 5.75333 11.6385 5.506 11.6385C5.13733 11.6385 4.85033 11.5062 4.645 11.2416C4.43967 10.9722 4.337 10.5993 4.337 10.1229C4.337 9.80054 4.38367 9.52869 4.477 9.30736C4.57033 9.08122 4.70333 8.91041 4.876 8.79493C5.05333 8.67465 5.26333 8.6145 5.506 8.6145C5.87467 8.6145 6.16167 8.74682 6.367 9.01145C6.57233 9.27609 6.675 9.64657 6.675 10.1229C6.675 10.4405 6.62833 10.7123 6.535 10.9385C6.44167 11.1646 6.30867 11.3378 6.136 11.4581Z" fill="#3C4B65"/>
<path fill-rule="evenodd" clip-rule="evenodd" d="M3.65916 17.8135H2.5C1.39543 17.8135 0.5 18.7367 0.5 19.8756V28.2237C0.5 29.3625 1.39543 30.2858 2.5 30.2858H11.3848C12.3939 30.2858 13.2119 29.4424 13.2119 28.402C13.2119 27.4756 13.8905 26.7133 14.679 26.2691C15.5024 25.8052 16.2627 25.0203 16.2627 23.8002C16.2627 22.6684 15.6085 22.0181 14.8567 21.6671C14.0047 21.2693 13.2119 20.524 13.2119 19.5596C13.2119 18.5952 12.4536 17.8135 11.5183 17.8135H10.0393C9.98831 17.9293 9.9464 18.0542 9.91472 18.1872C9.79026 18.7096 9.56446 19.2734 9.10447 19.7045C8.63528 20.1443 7.98197 20.3911 7.11017 20.3911C6.26947 20.3911 5.59447 20.1626 5.06699 19.781C4.5434 19.4021 4.19483 18.8941 3.96778 18.3795C3.87767 18.1754 3.77397 17.9851 3.65916 17.8135ZM4.2481 17.8135C4.31197 17.9288 4.37031 18.0469 4.42288 18.166C4.82083 19.0678 5.61269 19.8756 7.11017 19.8756C8.66381 19.8756 9.20473 19.0061 9.42916 18.0642C9.44952 17.9788 9.47372 17.8951 9.50159 17.8135H4.2481ZM7.1108 28.5878C6.90546 28.5878 6.7468 28.53 6.6348 28.4146C6.5228 28.2943 6.4668 28.1259 6.4668 27.9094V24.0481C6.4668 23.8268 6.5228 23.6584 6.6348 23.5429C6.7468 23.4274 6.90546 23.3697 7.1108 23.3697C7.3208 23.3697 7.47946 23.4274 7.5868 23.5429C7.6988 23.6584 7.7548 23.8268 7.7548 24.0481V27.9094C7.7548 28.1259 7.70113 28.2943 7.5938 28.4146C7.48646 28.53 7.32546 28.5878 7.1108 28.5878Z" fill="#3C4B65"/>
</svg>
