<svg width="48" height="31" viewBox="0 0 48 31" fill="none" xmlns="http://www.w3.org/2000/svg">
<path d="M45.5583 24.8699C45.105 24.0221 44.3967 23.4028 43.5878 23.1469L41.5688 10.2835C41.672 10.0044 41.7234 9.69968 41.7199 9.38883C41.6259 8.81194 41.2684 8.32916 40.7953 8.14042L19.9296 0.847885C19.6029 0.722019 19.2538 0.776806 18.9814 0.996698L1.35314 14.331C0.928455 14.6233 0.727354 15.2183 0.855498 15.8026C0.951605 16.3865 1.36102 16.8444 1.85708 16.9228L8.8735 18.6086L10.4744 28.8087C10.5444 29.2546 10.786 29.647 11.1264 29.8676C11.4847 30.095 11.9065 30.0946 12.2434 29.8665C19.1122 25.4202 27.24 24.1445 35.1407 26.2727L35.5852 26.3191C35.8247 26.2732 36.0415 26.1375 36.2044 25.9315C36.4961 25.6391 36.6267 25.1769 36.548 24.7164L34.9382 14.4596L39.3853 11.8455L41.2175 23.519C39.7694 24.5479 39.365 26.8211 40.3143 28.5961C41.2635 30.3711 43.207 30.9759 44.6551 29.947C46.1032 28.9179 46.5076 26.6449 45.5583 24.8699Z" fill="#30A1E2"/>
</svg>
