<svg width="35" height="35" viewBox="0 0 35 35" fill="none" xmlns="http://www.w3.org/2000/svg">
<path d="M25.6689 18.7305C21.1834 18.7305 17.5342 22.3797 17.5342 26.8652C17.5342 31.3508 21.1834 35 25.6689 35C30.1921 35 33.8721 31.3508 33.8721 26.8652C33.8721 22.3797 30.1921 18.7305 25.6689 18.7305ZM28.1656 25.8811L25.4313 29.1623C25.2352 29.3975 24.9458 29.5312 24.6436 29.5312C24.6043 29.5312 24.5649 29.529 24.5253 29.5244C24.1816 29.4845 23.8811 29.2739 23.7264 28.9644L22.6326 26.7769C22.3794 26.2704 22.5847 25.6545 23.0912 25.4013C23.5977 25.1478 24.2136 25.3533 24.4669 25.8598L24.8595 26.645L26.5902 24.5682C26.9527 24.1332 27.5993 24.0745 28.0343 24.4368C28.4694 24.7994 28.5282 25.446 28.1656 25.8811Z" fill="#E5E5E5"/>
<path d="M25.227 5.84151L21.0665 1.53904C21.0645 1.53699 21.0625 1.53487 21.0605 1.53282C20.1026 0.558701 18.7696 0 17.4036 0H4.2041C2.5079 0 1.12793 1.37997 1.12793 3.07617V29.668C1.12793 31.3642 2.5079 32.7441 4.2041 32.7441H17.3558C16.177 31.0822 15.4834 29.0533 15.4834 26.8652C15.4834 21.2489 20.0526 16.6797 25.6689 16.6797C26.015 16.6797 26.357 16.6971 26.6943 16.7305V9.43223C26.6943 8.08083 26.1732 6.80586 25.227 5.84151ZM11.9971 22.9004H6.52832C5.96203 22.9004 5.50293 22.4413 5.50293 21.875C5.50293 21.3087 5.96203 20.8496 6.52832 20.8496H11.9971C12.5634 20.8496 13.0225 21.3087 13.0225 21.875C13.0225 22.4413 12.5634 22.9004 11.9971 22.9004ZM11.9971 17.4316H6.52832C5.96203 17.4316 5.50293 16.9725 5.50293 16.4062C5.50293 15.84 5.96203 15.3809 6.52832 15.3809H11.9971C12.5634 15.3809 13.0225 15.84 13.0225 16.4062C13.0225 16.9725 12.5634 17.4316 11.9971 17.4316ZM11.9971 11.9629H6.52832C5.96203 11.9629 5.50293 11.5038 5.50293 10.9375C5.50293 10.3712 5.96203 9.91211 6.52832 9.91211H11.9971C12.5634 9.91211 13.0225 10.3712 13.0225 10.9375C13.0225 11.5038 12.5634 11.9629 11.9971 11.9629ZM18.5596 17.4316H17.4658C16.8995 17.4316 16.4404 16.9725 16.4404 16.4062C16.4404 15.84 16.8995 15.3809 17.4658 15.3809H18.5596C19.1259 15.3809 19.585 15.84 19.585 16.4062C19.585 16.9725 19.1259 17.4316 18.5596 17.4316ZM18.5596 11.9629H17.4658C16.8995 11.9629 16.4404 11.5038 16.4404 10.9375C16.4404 10.3712 16.8995 9.91211 17.4658 9.91211H18.5596C19.1259 9.91211 19.585 10.3712 19.585 10.9375C19.585 11.5038 19.1259 11.9629 18.5596 11.9629Z" fill="#E5E5E5"/>
</svg>
