<svg width="36" height="27" viewBox="0 0 36 27" fill="none" xmlns="http://www.w3.org/2000/svg">
<path d="M7.178 0.285645C0.478533 0.285645 0.000264531 5.01292 0 7.37655V19.1947C0 24.8675 3.9876 26.2856 5.9814 26.2856H27.5154C37.6039 26.2856 35.8897 18.0129 35.8897 9.14928C35.8897 2.05837 32.3007 0.285645 30.5062 0.285645H7.178Z" fill="#FFF44336"/>
<path d="M13.0942 15.729C12.88 13.5147 13.0646 11.0251 13.3137 9.1744C13.4571 8.10829 14.2473 7.17722 15.3119 7.33158C17.5703 7.65904 20.0473 9.6771 21.7417 11.4414C22.5475 12.2805 22.6966 13.5763 21.8801 14.405C20.3834 15.9241 18.085 16.983 16.1174 17.6286C14.6952 18.0951 13.2384 17.2188 13.0942 15.729Z" fill="white"/>
</svg>
