<svg width="31" height="30" viewBox="0 0 31 30" fill="none" xmlns="http://www.w3.org/2000/svg">
<path d="M6.75 13H9.25C10.5771 13 11.6642 12.6679 12.4161 11.9161C13.1679 11.1642 13.5 10.0771 13.5 8.75V6.25C13.5 4.92293 13.1679 3.83579 12.4161 3.08395C11.6642 2.33211 10.5771 2 9.25 2H6.75C5.42293 2 4.33579 2.33211 3.58395 3.08395C2.83211 3.83579 2.5 4.92293 2.5 6.25V8.75C2.5 10.0771 2.83211 11.1642 3.58395 11.9161C4.33579 12.6679 5.42293 13 6.75 13Z" fill="#3C4B65" stroke="#3C4B65" stroke-miterlimit="10" stroke-linecap="round" stroke-linejoin="round"/>
<path d="M21.75 13H24.25C25.5771 13 26.6642 12.6679 27.4161 11.9161C28.1679 11.1642 28.5 10.0771 28.5 8.75V6.25C28.5 4.92293 28.1679 3.83579 27.4161 3.08395C26.6642 2.33211 25.5771 2 24.25 2H21.75C20.4229 2 19.3358 2.33211 18.5839 3.08395C17.8321 3.83579 17.5 4.92293 17.5 6.25V8.75C17.5 10.0771 17.8321 11.1642 18.5839 11.9161C19.3358 12.6679 20.4229 13 21.75 13Z" fill="#3C4B65" stroke="#3C4B65" stroke-miterlimit="10" stroke-linecap="round" stroke-linejoin="round"/>
<path d="M21.75 28H24.25C25.5771 28 26.6642 27.6679 27.4161 26.9161C28.1679 26.1642 28.5 25.0771 28.5 23.75V21.25C28.5 19.9229 28.1679 18.8358 27.4161 18.0839C26.6642 17.3321 25.5771 17 24.25 17H21.75C20.4229 17 19.3358 17.3321 18.5839 18.0839C17.8321 18.8358 17.5 19.9229 17.5 21.25V23.75C17.5 25.0771 17.8321 26.1642 18.5839 26.9161C19.3358 27.6679 20.4229 28 21.75 28Z" fill="#3C4B65" stroke="#3C4B65" stroke-miterlimit="10" stroke-linecap="round" stroke-linejoin="round"/>
<path d="M6.75 28H9.25C10.5771 28 11.6642 27.6679 12.4161 26.9161C13.1679 26.1642 13.5 25.0771 13.5 23.75V21.25C13.5 19.9229 13.1679 18.8358 12.4161 18.0839C11.6642 17.3321 10.5771 17 9.25 17H6.75C5.42293 17 4.33579 17.3321 3.58395 18.0839C2.83211 18.8358 2.5 19.9229 2.5 21.25V23.75C2.5 25.0771 2.83211 26.1642 3.58395 26.9161C4.33579 27.6679 5.42293 28 6.75 28Z" fill="#3C4B65" stroke="#3C4B65" stroke-miterlimit="10" stroke-linecap="round" stroke-linejoin="round"/>
</svg>
