<svg width="30" height="33" viewBox="0 0 30 33" fill="none" xmlns="http://www.w3.org/2000/svg">
<path d="M15 16.5C13.3929 16.5 11.9866 16.1777 10.6473 15.4043C9.30804 14.6953 8.30357 13.7285 7.56696 12.4395C6.76339 11.1504 6.42857 9.79688 6.42857 8.25C6.42857 6.76758 6.76339 5.41406 7.56696 4.125C8.30357 2.83594 9.30804 1.86914 10.6473 1.0957C11.9866 0.386719 13.3929 0 15 0C16.5402 0 17.9464 0.386719 19.2857 1.0957C20.625 1.86914 21.6295 2.83594 22.433 4.125C23.1696 5.41406 23.5714 6.76758 23.5714 8.25C23.5714 9.79688 23.1696 11.1504 22.433 12.4395C21.6295 13.7285 20.625 14.6953 19.2857 15.4043C17.9464 16.1777 16.5402 16.5 15 16.5ZM21.0268 18.5625C22.6339 18.5625 24.1071 18.9492 25.5134 19.7227C26.8527 20.4961 27.9911 21.5918 28.7946 22.8809C29.5982 24.2344 30 25.6523 30 27.1992V29.9062C30 30.8086 29.6652 31.5176 29.0625 32.0977C28.3929 32.7422 27.6563 33 26.7857 33H3.21429C2.27679 33 1.54018 32.7422 0.9375 32.0977C0.267857 31.5176 0 30.8086 0 29.9062V27.1992C0 25.6523 0.401786 24.2344 1.20536 22.8809C2.00893 21.5918 3.08036 20.4961 4.48661 19.7227C5.82589 18.9492 7.36607 18.5625 8.97321 18.5625H10.1116C11.6518 19.2715 13.2589 19.5938 15 19.5938C16.6741 19.5938 18.2813 19.2715 19.8884 18.5625H21.0268Z" fill="#E5E5E5"/>
</svg>
