<svg width="30" height="30" viewBox="0 0 30 30" fill="none" xmlns="http://www.w3.org/2000/svg">
<path fill-rule="evenodd" clip-rule="evenodd" d="M12.4998 3.62266C7.68569 3.62266 3.95194 7.46844 3.95194 12C3.95194 16.5316 7.68569 20.3773 12.4998 20.3773C17.3138 20.3773 21.0476 16.5316 21.0476 12C21.0476 7.46844 17.3138 3.62266 12.4998 3.62266ZM0.499756 12C0.499756 5.27747 5.96557 0 12.4998 0C19.0339 0 24.4998 5.27747 24.4998 12C24.4998 18.7225 19.0339 24 12.4998 24C5.96557 24 0.499756 18.7225 0.499756 12Z" fill="#3C4B65"/>
<path d="M18.1697 20.4629C17.8952 20.1243 17.9283 19.6455 18.247 19.3437C18.5657 19.0419 19.0714 19.0105 19.4289 19.2704L26.5182 24.4238C27.5115 25.1458 27.6072 26.5304 26.7218 27.3689C25.8364 28.2073 24.3741 28.1167 23.6117 27.1761L18.1697 20.4629Z" fill="#3C4B65"/>
<path fill-rule="evenodd" clip-rule="evenodd" d="M19.994 18.5732L27.0834 23.7266C28.5213 24.7718 28.6598 26.7764 27.378 27.9902C26.0962 29.204 23.9794 29.0728 22.8756 27.7112L17.4336 20.9979C16.8755 20.3094 16.9428 19.3359 17.5908 18.7222C18.2389 18.1085 19.267 18.0448 19.994 18.5732ZM18.2471 19.3436C17.9283 19.6454 17.8952 20.1242 18.1697 20.4628L23.6117 27.176C24.3742 28.1166 25.8364 28.2072 26.7218 27.3688C27.6072 26.5303 27.5115 25.1457 26.5183 24.4237L19.4289 19.2703C19.0714 19.0104 18.5658 19.0418 18.2471 19.3436Z" fill="#3C4B65"/>
</svg>
